<?xml version="1.0" encoding="utf-8"?>
<!-- Generator: Adobe Illustrator 24.0.2, SVG Export Plug-In . SVG Version: 6.00 Build 0)  -->
<svg version="1.1" id="Layer_1" xmlns="http://www.w3.org/2000/svg" xmlns:xlink="http://www.w3.org/1999/xlink" x="0px" y="0px"
	 viewBox="0 0 31.2 31.2" style="enable-background:new 0 0 31.2 31.2;" xml:space="preserve">
<style type="text/css">
	.st0{fill:#BC7D81;}
	.st1{fill:none;}
	.st2{fill:none;stroke:#FFFFFF;stroke-width:1.5;stroke-linecap:round;stroke-linejoin:round;}
	.st3{fill:#FDF6F6;}
</style>
<path class="st0" d="M15.6,0.2c8.5,0,15.3,6.9,15.3,15.3c0,8.5-6.9,15.3-15.3,15.3c-2.6,0-5.2-0.7-7.4-1.8c-0.2-0.1-6,1.6-6.4,1.7
	c-1.9,0.6-1.4,0.1-1.2-1.1c0.4-1.1,1.7-6.3,1.6-6.5c-1.2-2.2-1.9-4.9-1.9-7.6C0.3,7.1,7.1,0.2,15.6,0.2z"/>
<g transform="translate(793.402 908)">
	<rect x="-785.8" y="-900.4" class="st1" width="16" height="16"/>
	<g transform="translate(1.76 1.667)">
		<path class="st2" d="M-772.9-891.1v1.9c0,0.7-0.6,1.3-1.2,1.3h-0.1c-1.9-0.2-3.8-0.9-5.4-1.9c-1.5-1-2.8-2.2-3.8-3.8
			c-1.1-1.6-1.7-3.5-1.9-5.4c-0.1-0.7,0.4-1.3,1.1-1.4h0.1h1.9c0.6,0,1.2,0.5,1.3,1.1s0.2,1.2,0.4,1.8c0.2,0.5,0.1,1-0.3,1.3
			l-0.8,0.8c0.9,1.6,2.2,2.9,3.8,3.8l0.8-0.8c0.3-0.3,0.9-0.5,1.3-0.3c0.6,0.2,1.2,0.4,1.8,0.4
			C-773.4-892.2-772.9-891.7-772.9-891.1z"/>
	</g>
</g>
<g transform="translate(789.033 903.415)">
	<path class="st1" d="M-773.4-900.1c6.8,0,12.2,5.6,12.2,12.3s-5.6,12.2-12.3,12.2c-2,0-4-0.5-5.8-1.5c-0.1-0.1-4.8,1.3-5.2,1.4
		c-1.6,0.5-1.1,0.1-0.9-0.9c0.5-1.7,1-3.4,1.3-5.2c-1-1.9-1.5-3.9-1.6-6.1C-785.7-894.6-780.2-900.1-773.4-900.1z"/>
	<path class="st3" d="M-773.4-898.6c-2.9,0-5.6,1.1-7.6,3.2c-2,2-3.2,4.7-3.2,7.6c0,1.8,0.5,3.8,1.4,5.3c0.3,0.5,0.3,0.8-0.4,3.4
		c-0.1,0.5-0.3,1.1-0.4,1.6c3.6-1,3.9-1.1,4.2-1.1s0.5,0.1,0.7,0.2c1.6,0.8,3.4,1.3,5.2,1.3c2.9,0,5.6-1.1,7.6-3.2s3.2-4.7,3.2-7.6
		s-1.1-5.6-3.2-7.6S-770.6-898.6-773.4-898.6 M-773.4-900.1c6.8,0,12.3,5.5,12.3,12.3s-5.5,12.3-12.3,12.3c-2.1,0-4.1-0.5-5.9-1.5
		c-0.1-0.1-4.8,1.3-5.2,1.4c-1.6,0.5-1.1,0-0.9-0.9c0.3-0.9,1.4-5,1.3-5.2c-1-1.7-1.6-3.9-1.6-6.1
		C-785.7-894.6-780.2-900.1-773.4-900.1z"/>
</g>
</svg>
